# Tiled2Unity generated file. Do not modify by hand.
# Wavefront file for 'forest_mesh_0006.obj'

# Vertices (Count = 564)
v -1.28 -0.32 0
v -1.6 -0.32 0
v -1.6 0 0
v -1.28 0 0
v -1.6 -0.32 0
v -1.92 -0.32 0
v -1.92 0 0
v -1.6 0 0
v -1.92 -0.32 0
v -2.24 -0.32 0
v -2.24 0 0
v -1.92 0 0
v -2.88 -0.32 0
v -3.2 -0.32 0
v -3.2 0 0
v -2.88 0 0
v -3.2 -0.32 0
v -3.52 -0.32 0
v -3.52 0 0
v -3.2 0 0
v -3.52 -0.32 0
v -3.84 -0.32 0
v -3.84 0 0
v -3.52 0 0
v -1.28 -0.64 0
v -1.6 -0.64 0
v -1.6 -0.32 0
v -1.28 -0.32 0
v -1.6 -0.64 0
v -1.92 -0.64 0
v -1.92 -0.32 0
v -1.6 -0.32 0
v -1.92 -0.64 0
v -2.24 -0.64 0
v -2.24 -0.32 0
v -1.92 -0.32 0
v -2.88 -0.64 0
v -3.2 -0.64 0
v -3.2 -0.32 0
v -2.88 -0.32 0
v -3.2 -0.64 0
v -3.52 -0.64 0
v -3.52 -0.32 0
v -3.2 -0.32 0
v -3.52 -0.64 0
v -3.84 -0.64 0
v -3.84 -0.32 0
v -3.52 -0.32 0
v -1.28 -0.96 0
v -1.6 -0.96 0
v -1.6 -0.64 0
v -1.28 -0.64 0
v -1.6 -0.96 0
v -1.92 -0.96 0
v -1.92 -0.64 0
v -1.6 -0.64 0
v -1.92 -0.96 0
v -2.24 -0.96 0
v -2.24 -0.64 0
v -1.92 -0.64 0
v -2.88 -0.96 0
v -3.2 -0.96 0
v -3.2 -0.64 0
v -2.88 -0.64 0
v -3.2 -0.96 0
v -3.52 -0.96 0
v -3.52 -0.64 0
v -3.2 -0.64 0
v -3.52 -0.96 0
v -3.84 -0.96 0
v -3.84 -0.64 0
v -3.52 -0.64 0
v -4.48 -0.96 0
v -4.8 -0.96 0
v -4.8 -0.64 0
v -4.48 -0.64 0
v -4.8 -0.96 0
v -5.12 -0.96 0
v -5.12 -0.64 0
v -4.8 -0.64 0
v -5.12 -0.96 0
v -5.44 -0.96 0
v -5.44 -0.64 0
v -5.12 -0.64 0
v -6.72 -0.96 0
v -7.04 -0.96 0
v -7.04 -0.64 0
v -6.72 -0.64 0
v -7.04 -0.96 0
v -7.36 -0.96 0
v -7.36 -0.64 0
v -7.04 -0.64 0
v -7.36 -0.96 0
v -7.68 -0.96 0
v -7.68 -0.64 0
v -7.36 -0.64 0
v -4.48 -1.28 0
v -4.8 -1.28 0
v -4.8 -0.96 0
v -4.48 -0.96 0
v -4.8 -1.28 0
v -5.12 -1.28 0
v -5.12 -0.96 0
v -4.8 -0.96 0
v -5.12 -1.28 0
v -5.44 -1.28 0
v -5.44 -0.96 0
v -5.12 -0.96 0
v -6.72 -1.28 0
v -7.04 -1.28 0
v -7.04 -0.96 0
v -6.72 -0.96 0
v -7.04 -1.28 0
v -7.36 -1.28 0
v -7.36 -0.96 0
v -7.04 -0.96 0
v -7.36 -1.28 0
v -7.68 -1.28 0
v -7.68 -0.96 0
v -7.36 -0.96 0
v -4.48 -1.6 0
v -4.8 -1.6 0
v -4.8 -1.28 0
v -4.48 -1.28 0
v -4.8 -1.6 0
v -5.12 -1.6 0
v -5.12 -1.28 0
v -4.8 -1.28 0
v -5.12 -1.6 0
v -5.44 -1.6 0
v -5.44 -1.28 0
v -5.12 -1.28 0
v -6.72 -1.6 0
v -7.04 -1.6 0
v -7.04 -1.28 0
v -6.72 -1.28 0
v -7.04 -1.6 0
v -7.36 -1.6 0
v -7.36 -1.28 0
v -7.04 -1.28 0
v -7.36 -1.6 0
v -7.68 -1.6 0
v -7.68 -1.28 0
v -7.36 -1.28 0
v -2.56 -1.92 0
v -2.88 -1.92 0
v -2.88 -1.6 0
v -2.56 -1.6 0
v -2.88 -1.92 0
v -3.2 -1.92 0
v -3.2 -1.6 0
v -2.88 -1.6 0
v -3.2 -1.92 0
v -3.52 -1.92 0
v -3.52 -1.6 0
v -3.2 -1.6 0
v -6.72 -1.92 0
v -7.04 -1.92 0
v -7.04 -1.6 0
v -6.72 -1.6 0
v -7.04 -1.92 0
v -7.36 -1.92 0
v -7.36 -1.6 0
v -7.04 -1.6 0
v -7.36 -1.92 0
v -7.68 -1.92 0
v -7.68 -1.6 0
v -7.36 -1.6 0
v -8.639999 -1.92 0
v -8.96 -1.92 0
v -8.96 -1.6 0
v -8.639999 -1.6 0
v -8.96 -1.92 0
v -9.28 -1.92 0
v -9.28 -1.6 0
v -8.96 -1.6 0
v -9.28 -1.92 0
v -9.599999 -1.92 0
v -9.599999 -1.6 0
v -9.28 -1.6 0
v -2.56 -2.24 0
v -2.88 -2.24 0
v -2.88 -1.92 0
v -2.56 -1.92 0
v -2.88 -2.24 0
v -3.2 -2.24 0
v -3.2 -1.92 0
v -2.88 -1.92 0
v -3.2 -2.24 0
v -3.52 -2.24 0
v -3.52 -1.92 0
v -3.2 -1.92 0
v -8.639999 -2.24 0
v -8.96 -2.24 0
v -8.96 -1.92 0
v -8.639999 -1.92 0
v -8.96 -2.24 0
v -9.28 -2.24 0
v -9.28 -1.92 0
v -8.96 -1.92 0
v -9.28 -2.24 0
v -9.599999 -2.24 0
v -9.599999 -1.92 0
v -9.28 -1.92 0
v -2.56 -2.56 0
v -2.88 -2.56 0
v -2.88 -2.24 0
v -2.56 -2.24 0
v -2.88 -2.56 0
v -3.2 -2.56 0
v -3.2 -2.24 0
v -2.88 -2.24 0
v -3.2 -2.56 0
v -3.52 -2.56 0
v -3.52 -2.24 0
v -3.2 -2.24 0
v -8.639999 -2.56 0
v -8.96 -2.56 0
v -8.96 -2.24 0
v -8.639999 -2.24 0
v -8.96 -2.56 0
v -9.28 -2.56 0
v -9.28 -2.24 0
v -8.96 -2.24 0
v -9.28 -2.56 0
v -9.599999 -2.56 0
v -9.599999 -2.24 0
v -9.28 -2.24 0
v -2.56 -2.88 0
v -2.88 -2.88 0
v -2.88 -2.56 0
v -2.56 -2.56 0
v -2.88 -2.88 0
v -3.2 -2.88 0
v -3.2 -2.56 0
v -2.88 -2.56 0
v -3.2 -2.88 0
v -3.52 -2.88 0
v -3.52 -2.56 0
v -3.2 -2.56 0
v -6.08 -2.88 0
v -6.4 -2.88 0
v -6.4 -2.56 0
v -6.08 -2.56 0
v -6.4 -2.88 0
v -6.72 -2.88 0
v -6.72 -2.56 0
v -6.4 -2.56 0
v -6.72 -2.88 0
v -7.04 -2.88 0
v -7.04 -2.56 0
v -6.72 -2.56 0
v -6.08 -3.2 0
v -6.4 -3.2 0
v -6.4 -2.88 0
v -6.08 -2.88 0
v -6.4 -3.2 0
v -6.72 -3.2 0
v -6.72 -2.88 0
v -6.4 -2.88 0
v -6.72 -3.2 0
v -7.04 -3.2 0
v -7.04 -2.88 0
v -6.72 -2.88 0
v -6.08 -3.52 0
v -6.4 -3.52 0
v -6.4 -3.2 0
v -6.08 -3.2 0
v -6.4 -3.52 0
v -6.72 -3.52 0
v -6.72 -3.2 0
v -6.4 -3.2 0
v -6.72 -3.52 0
v -7.04 -3.52 0
v -7.04 -3.2 0
v -6.72 -3.2 0
v -6.08 -3.84 0
v -6.4 -3.84 0
v -6.4 -3.52 0
v -6.08 -3.52 0
v -6.4 -3.84 0
v -6.72 -3.84 0
v -6.72 -3.52 0
v -6.4 -3.52 0
v -6.72 -3.84 0
v -7.04 -3.84 0
v -7.04 -3.52 0
v -6.72 -3.52 0
v -8 -4.16 0
v -8.32 -4.16 0
v -8.32 -3.84 0
v -8 -3.84 0
v -8.32 -4.16 0
v -8.639999 -4.16 0
v -8.639999 -3.84 0
v -8.32 -3.84 0
v -8.639999 -4.16 0
v -8.96 -4.16 0
v -8.96 -3.84 0
v -8.639999 -3.84 0
v -8 -4.48 0
v -8.32 -4.48 0
v -8.32 -4.16 0
v -8 -4.16 0
v -8.32 -4.48 0
v -8.639999 -4.48 0
v -8.639999 -4.16 0
v -8.32 -4.16 0
v -8.639999 -4.48 0
v -8.96 -4.48 0
v -8.96 -4.16 0
v -8.639999 -4.16 0
v -8 -4.8 0
v -8.32 -4.8 0
v -8.32 -4.48 0
v -8 -4.48 0
v -8.32 -4.8 0
v -8.639999 -4.8 0
v -8.639999 -4.48 0
v -8.32 -4.48 0
v -8.639999 -4.8 0
v -8.96 -4.8 0
v -8.96 -4.48 0
v -8.639999 -4.48 0
v -2.56 -5.44 0
v -2.88 -5.44 0
v -2.88 -5.12 0
v -2.56 -5.12 0
v -2.88 -5.44 0
v -3.2 -5.44 0
v -3.2 -5.12 0
v -2.88 -5.12 0
v -3.2 -5.44 0
v -3.52 -5.44 0
v -3.52 -5.12 0
v -3.2 -5.12 0
v -1.28 -5.76 0
v -1.6 -5.76 0
v -1.6 -5.44 0
v -1.28 -5.44 0
v -1.6 -5.76 0
v -1.92 -5.76 0
v -1.92 -5.44 0
v -1.6 -5.44 0
v -1.92 -5.76 0
v -2.24 -5.76 0
v -2.24 -5.44 0
v -1.92 -5.44 0
v -2.56 -5.76 0
v -2.88 -5.76 0
v -2.88 -5.44 0
v -2.56 -5.44 0
v -2.88 -5.76 0
v -3.2 -5.76 0
v -3.2 -5.44 0
v -2.88 -5.44 0
v -3.2 -5.76 0
v -3.52 -5.76 0
v -3.52 -5.44 0
v -3.2 -5.44 0
v -1.28 -6.08 0
v -1.6 -6.08 0
v -1.6 -5.76 0
v -1.28 -5.76 0
v -1.6 -6.08 0
v -1.92 -6.08 0
v -1.92 -5.76 0
v -1.6 -5.76 0
v -1.92 -6.08 0
v -2.24 -6.08 0
v -2.24 -5.76 0
v -1.92 -5.76 0
v -2.56 -6.08 0
v -2.88 -6.08 0
v -2.88 -5.76 0
v -2.56 -5.76 0
v -2.88 -6.08 0
v -3.2 -6.08 0
v -3.2 -5.76 0
v -2.88 -5.76 0
v -3.2 -6.08 0
v -3.52 -6.08 0
v -3.52 -5.76 0
v -3.2 -5.76 0
v -1.28 -6.4 0
v -1.6 -6.4 0
v -1.6 -6.08 0
v -1.28 -6.08 0
v -1.6 -6.4 0
v -1.92 -6.4 0
v -1.92 -6.08 0
v -1.6 -6.08 0
v -1.92 -6.4 0
v -2.24 -6.4 0
v -2.24 -6.08 0
v -1.92 -6.08 0
v -2.56 -6.4 0
v -2.88 -6.4 0
v -2.88 -6.08 0
v -2.56 -6.08 0
v -2.88 -6.4 0
v -3.2 -6.4 0
v -3.2 -6.08 0
v -2.88 -6.08 0
v -3.2 -6.4 0
v -3.52 -6.4 0
v -3.52 -6.08 0
v -3.2 -6.08 0
v -4.8 -7.36 0
v -5.12 -7.36 0
v -5.12 -7.04 0
v -4.8 -7.04 0
v -5.12 -7.36 0
v -5.44 -7.36 0
v -5.44 -7.04 0
v -5.12 -7.04 0
v -5.44 -7.36 0
v -5.76 -7.36 0
v -5.76 -7.04 0
v -5.44 -7.04 0
v -2.24 -7.68 0
v -2.56 -7.68 0
v -2.56 -7.36 0
v -2.24 -7.36 0
v -2.56 -7.68 0
v -2.88 -7.68 0
v -2.88 -7.36 0
v -2.56 -7.36 0
v -2.88 -7.68 0
v -3.2 -7.68 0
v -3.2 -7.36 0
v -2.88 -7.36 0
v -4.8 -7.68 0
v -5.12 -7.68 0
v -5.12 -7.36 0
v -4.8 -7.36 0
v -5.12 -7.68 0
v -5.44 -7.68 0
v -5.44 -7.36 0
v -5.12 -7.36 0
v -5.44 -7.68 0
v -5.76 -7.68 0
v -5.76 -7.36 0
v -5.44 -7.36 0
v -2.24 -8 0
v -2.56 -8 0
v -2.56 -7.68 0
v -2.24 -7.68 0
v -2.56 -8 0
v -2.88 -8 0
v -2.88 -7.68 0
v -2.56 -7.68 0
v -2.88 -8 0
v -3.2 -8 0
v -3.2 -7.68 0
v -2.88 -7.68 0
v -4.8 -8 0
v -5.12 -8 0
v -5.12 -7.68 0
v -4.8 -7.68 0
v -5.12 -8 0
v -5.44 -8 0
v -5.44 -7.68 0
v -5.12 -7.68 0
v -5.44 -8 0
v -5.76 -8 0
v -5.76 -7.68 0
v -5.44 -7.68 0
v -7.04 -8 0
v -7.36 -8 0
v -7.36 -7.68 0
v -7.04 -7.68 0
v -7.36 -8 0
v -7.68 -8 0
v -7.68 -7.68 0
v -7.36 -7.68 0
v -7.68 -8 0
v -8 -8 0
v -8 -7.68 0
v -7.68 -7.68 0
v -0.64 -8.32 0
v -0.96 -8.32 0
v -0.96 -8 0
v -0.64 -8 0
v -0.96 -8.32 0
v -1.28 -8.32 0
v -1.28 -8 0
v -0.96 -8 0
v -1.28 -8.32 0
v -1.6 -8.32 0
v -1.6 -8 0
v -1.28 -8 0
v -2.24 -8.32 0
v -2.56 -8.32 0
v -2.56 -8 0
v -2.24 -8 0
v -2.56 -8.32 0
v -2.88 -8.32 0
v -2.88 -8 0
v -2.56 -8 0
v -2.88 -8.32 0
v -3.2 -8.32 0
v -3.2 -8 0
v -2.88 -8 0
v -7.04 -8.32 0
v -7.36 -8.32 0
v -7.36 -8 0
v -7.04 -8 0
v -7.36 -8.32 0
v -7.68 -8.32 0
v -7.68 -8 0
v -7.36 -8 0
v -7.68 -8.32 0
v -8 -8.32 0
v -8 -8 0
v -7.68 -8 0
v -0.64 -8.639999 0
v -0.96 -8.639999 0
v -0.96 -8.32 0
v -0.64 -8.32 0
v -0.96 -8.639999 0
v -1.28 -8.639999 0
v -1.28 -8.32 0
v -0.96 -8.32 0
v -1.28 -8.639999 0
v -1.6 -8.639999 0
v -1.6 -8.32 0
v -1.28 -8.32 0
v -2.24 -8.639999 0
v -2.56 -8.639999 0
v -2.56 -8.32 0
v -2.24 -8.32 0
v -2.56 -8.639999 0
v -2.88 -8.639999 0
v -2.88 -8.32 0
v -2.56 -8.32 0
v -2.88 -8.639999 0
v -3.2 -8.639999 0
v -3.2 -8.32 0
v -2.88 -8.32 0
v -7.04 -8.639999 0
v -7.36 -8.639999 0
v -7.36 -8.32 0
v -7.04 -8.32 0
v -7.36 -8.639999 0
v -7.68 -8.639999 0
v -7.68 -8.32 0
v -7.36 -8.32 0
v -7.68 -8.639999 0
v -8 -8.639999 0
v -8 -8.32 0
v -7.68 -8.32 0
v -0.64 -8.96 0
v -0.96 -8.96 0
v -0.96 -8.639999 0
v -0.64 -8.639999 0
v -0.96 -8.96 0
v -1.28 -8.96 0
v -1.28 -8.639999 0
v -0.96 -8.639999 0
v -1.28 -8.96 0
v -1.6 -8.96 0
v -1.6 -8.639999 0
v -1.28 -8.639999 0

# Texture cooridinates (Count = 32)
vt 0.5 0.2857143
vt 0.6666667 0.2857143
vt 0.6666667 0.4285714
vt 0.5 0.4285714
vt 0.8333333 0.2857143
vt 0.8333333 0.4285714
vt 1 0.2857143
vt 1 0.4285714
vt 0.5 0.1428571
vt 0.6666667 0.1428571
vt 0.8333333 0.1428571
vt 1 0.1428571
vt 0.5 0
vt 0.6666667 0
vt 0.8333333 0
vt 1 0
vt 0 0.4285714
vt 0.1666667 0.4285714
vt 0.1666667 0.5714285
vt 0 0.5714285
vt 0.3333333 0.4285714
vt 0.3333333 0.5714285
vt 0.5 0.5714285
vt 0.6666667 0.5714285
vt 0.8333333 0.5714285
vt 1 0.5714285
vt 0 0.2857143
vt 0.1666667 0.2857143
vt 0.3333333 0.2857143
vt 0 0.1428571
vt 0.1666667 0.1428571
vt 0.3333333 0.1428571

# Normal
vn 0 0 -1

# Mesh description
g forest_mesh_0006

# Faces
f 1/1/1 2/2/1 3/3/1 4/4/1
f 5/2/1 6/5/1 7/6/1 8/3/1
f 9/5/1 10/7/1 11/8/1 12/6/1
f 13/1/1 14/2/1 15/3/1 16/4/1
f 17/2/1 18/5/1 19/6/1 20/3/1
f 21/5/1 22/7/1 23/8/1 24/6/1
f 25/9/1 26/10/1 27/2/1 28/1/1
f 29/10/1 30/11/1 31/5/1 32/2/1
f 33/11/1 34/12/1 35/7/1 36/5/1
f 37/9/1 38/10/1 39/2/1 40/1/1
f 41/10/1 42/11/1 43/5/1 44/2/1
f 45/11/1 46/12/1 47/7/1 48/5/1
f 49/13/1 50/14/1 51/10/1 52/9/1
f 53/14/1 54/15/1 55/11/1 56/10/1
f 57/15/1 58/16/1 59/12/1 60/11/1
f 61/13/1 62/14/1 63/10/1 64/9/1
f 65/14/1 66/15/1 67/11/1 68/10/1
f 69/15/1 70/16/1 71/12/1 72/11/1
f 73/17/1 74/18/1 75/19/1 76/20/1
f 77/18/1 78/21/1 79/22/1 80/19/1
f 81/21/1 82/4/1 83/23/1 84/22/1
f 85/4/1 86/3/1 87/24/1 88/23/1
f 89/3/1 90/6/1 91/25/1 92/24/1
f 93/6/1 94/8/1 95/26/1 96/25/1
f 97/27/1 98/28/1 99/18/1 100/17/1
f 101/28/1 102/29/1 103/21/1 104/18/1
f 105/29/1 106/1/1 107/4/1 108/21/1
f 109/1/1 110/2/1 111/3/1 112/4/1
f 113/2/1 114/5/1 115/6/1 116/3/1
f 117/5/1 118/7/1 119/8/1 120/6/1
f 121/30/1 122/31/1 123/28/1 124/27/1
f 125/31/1 126/32/1 127/29/1 128/28/1
f 129/32/1 130/9/1 131/1/1 132/29/1
f 133/9/1 134/10/1 135/2/1 136/1/1
f 137/10/1 138/11/1 139/5/1 140/2/1
f 141/11/1 142/12/1 143/7/1 144/5/1
f 145/4/1 146/3/1 147/24/1 148/23/1
f 149/3/1 150/6/1 151/25/1 152/24/1
f 153/6/1 154/8/1 155/26/1 156/25/1
f 157/13/1 158/14/1 159/10/1 160/9/1
f 161/14/1 162/15/1 163/11/1 164/10/1
f 165/15/1 166/16/1 167/12/1 168/11/1
f 169/17/1 170/18/1 171/19/1 172/20/1
f 173/18/1 174/21/1 175/22/1 176/19/1
f 177/21/1 178/4/1 179/23/1 180/22/1
f 181/1/1 182/2/1 183/3/1 184/4/1
f 185/2/1 186/5/1 187/6/1 188/3/1
f 189/5/1 190/7/1 191/8/1 192/6/1
f 193/27/1 194/28/1 195/18/1 196/17/1
f 197/28/1 198/29/1 199/21/1 200/18/1
f 201/29/1 202/1/1 203/4/1 204/21/1
f 205/9/1 206/10/1 207/2/1 208/1/1
f 209/10/1 210/11/1 211/5/1 212/2/1
f 213/11/1 214/12/1 215/7/1 216/5/1
f 217/30/1 218/31/1 219/28/1 220/27/1
f 221/31/1 222/32/1 223/29/1 224/28/1
f 225/32/1 226/9/1 227/1/1 228/29/1
f 229/13/1 230/14/1 231/10/1 232/9/1
f 233/14/1 234/15/1 235/11/1 236/10/1
f 237/15/1 238/16/1 239/12/1 240/11/1
f 241/4/1 242/3/1 243/24/1 244/23/1
f 245/3/1 246/6/1 247/25/1 248/24/1
f 249/6/1 250/8/1 251/26/1 252/25/1
f 253/1/1 254/2/1 255/3/1 256/4/1
f 257/2/1 258/5/1 259/6/1 260/3/1
f 261/5/1 262/7/1 263/8/1 264/6/1
f 265/9/1 266/10/1 267/2/1 268/1/1
f 269/10/1 270/11/1 271/5/1 272/2/1
f 273/11/1 274/12/1 275/7/1 276/5/1
f 277/13/1 278/14/1 279/10/1 280/9/1
f 281/14/1 282/15/1 283/11/1 284/10/1
f 285/15/1 286/16/1 287/12/1 288/11/1
f 289/17/1 290/18/1 291/19/1 292/20/1
f 293/18/1 294/21/1 295/22/1 296/19/1
f 297/21/1 298/4/1 299/23/1 300/22/1
f 301/27/1 302/28/1 303/18/1 304/17/1
f 305/28/1 306/29/1 307/21/1 308/18/1
f 309/29/1 310/1/1 311/4/1 312/21/1
f 313/30/1 314/31/1 315/28/1 316/27/1
f 317/31/1 318/32/1 319/29/1 320/28/1
f 321/32/1 322/9/1 323/1/1 324/29/1
f 325/4/1 326/3/1 327/24/1 328/23/1
f 329/3/1 330/6/1 331/25/1 332/24/1
f 333/6/1 334/8/1 335/26/1 336/25/1
f 337/17/1 338/18/1 339/19/1 340/20/1
f 341/18/1 342/21/1 343/22/1 344/19/1
f 345/21/1 346/4/1 347/23/1 348/22/1
f 349/1/1 350/2/1 351/3/1 352/4/1
f 353/2/1 354/5/1 355/6/1 356/3/1
f 357/5/1 358/7/1 359/8/1 360/6/1
f 361/27/1 362/28/1 363/18/1 364/17/1
f 365/28/1 366/29/1 367/21/1 368/18/1
f 369/29/1 370/1/1 371/4/1 372/21/1
f 373/9/1 374/10/1 375/2/1 376/1/1
f 377/10/1 378/11/1 379/5/1 380/2/1
f 381/11/1 382/12/1 383/7/1 384/5/1
f 385/30/1 386/31/1 387/28/1 388/27/1
f 389/31/1 390/32/1 391/29/1 392/28/1
f 393/32/1 394/9/1 395/1/1 396/29/1
f 397/13/1 398/14/1 399/10/1 400/9/1
f 401/14/1 402/15/1 403/11/1 404/10/1
f 405/15/1 406/16/1 407/12/1 408/11/1
f 409/17/1 410/18/1 411/19/1 412/20/1
f 413/18/1 414/21/1 415/22/1 416/19/1
f 417/21/1 418/4/1 419/23/1 420/22/1
f 421/4/1 422/3/1 423/24/1 424/23/1
f 425/3/1 426/6/1 427/25/1 428/24/1
f 429/6/1 430/8/1 431/26/1 432/25/1
f 433/27/1 434/28/1 435/18/1 436/17/1
f 437/28/1 438/29/1 439/21/1 440/18/1
f 441/29/1 442/1/1 443/4/1 444/21/1
f 445/1/1 446/2/1 447/3/1 448/4/1
f 449/2/1 450/5/1 451/6/1 452/3/1
f 453/5/1 454/7/1 455/8/1 456/6/1
f 457/30/1 458/31/1 459/28/1 460/27/1
f 461/31/1 462/32/1 463/29/1 464/28/1
f 465/32/1 466/9/1 467/1/1 468/29/1
f 469/17/1 470/18/1 471/19/1 472/20/1
f 473/18/1 474/21/1 475/22/1 476/19/1
f 477/21/1 478/4/1 479/23/1 480/22/1
f 481/17/1 482/18/1 483/19/1 484/20/1
f 485/18/1 486/21/1 487/22/1 488/19/1
f 489/21/1 490/4/1 491/23/1 492/22/1
f 493/9/1 494/10/1 495/2/1 496/1/1
f 497/10/1 498/11/1 499/5/1 500/2/1
f 501/11/1 502/12/1 503/7/1 504/5/1
f 505/27/1 506/28/1 507/18/1 508/17/1
f 509/28/1 510/29/1 511/21/1 512/18/1
f 513/29/1 514/1/1 515/4/1 516/21/1
f 517/27/1 518/28/1 519/18/1 520/17/1
f 521/28/1 522/29/1 523/21/1 524/18/1
f 525/29/1 526/1/1 527/4/1 528/21/1
f 529/13/1 530/14/1 531/10/1 532/9/1
f 533/14/1 534/15/1 535/11/1 536/10/1
f 537/15/1 538/16/1 539/12/1 540/11/1
f 541/30/1 542/31/1 543/28/1 544/27/1
f 545/31/1 546/32/1 547/29/1 548/28/1
f 549/32/1 550/9/1 551/1/1 552/29/1
f 553/30/1 554/31/1 555/28/1 556/27/1
f 557/31/1 558/32/1 559/29/1 560/28/1
f 561/32/1 562/9/1 563/1/1 564/29/1

