# Tiled2Unity generated file. Do not modify by hand.
# Wavefront file for 'forest_mesh_0004.obj'

# Vertices (Count = 116)
v -5.44 -0.64 0
v -5.76 -0.64 0
v -5.76 -0.32 0
v -5.44 -0.32 0
v -0.64 -0.96 0
v -0.96 -0.96 0
v -0.96 -0.64 0
v -0.64 -0.64 0
v -6.4 -1.28 0
v -6.72 -1.28 0
v -6.72 -0.96 0
v -6.4 -0.96 0
v -2.56 -1.6 0
v -2.88 -1.6 0
v -2.88 -1.28 0
v -2.56 -1.28 0
v -1.6 -1.92 0
v -1.92 -1.92 0
v -1.92 -1.6 0
v -1.6 -1.6 0
v -5.12 -2.24 0
v -5.44 -2.24 0
v -5.44 -1.92 0
v -5.12 -1.92 0
v -1.92 -2.56 0
v -2.24 -2.56 0
v -2.24 -2.24 0
v -1.92 -2.24 0
v -5.76 -2.56 0
v -6.08 -2.56 0
v -6.08 -2.24 0
v -5.76 -2.24 0
v -4.16 -2.88 0
v -4.48 -2.88 0
v -4.48 -2.56 0
v -4.16 -2.56 0
v -7.68 -3.2 0
v -8 -3.2 0
v -8 -2.88 0
v -7.68 -2.88 0
v -8.32 -3.2 0
v -8.639999 -3.2 0
v -8.639999 -2.88 0
v -8.32 -2.88 0
v -5.12 -3.52 0
v -5.44 -3.52 0
v -5.44 -3.2 0
v -5.12 -3.2 0
v -1.6 -3.84 0
v -1.92 -3.84 0
v -1.92 -3.52 0
v -1.6 -3.52 0
v -7.04 -4.48 0
v -7.36 -4.48 0
v -7.36 -4.16 0
v -7.04 -4.16 0
v -7.68 -4.48 0
v -8 -4.48 0
v -8 -4.16 0
v -7.68 -4.16 0
v -7.36 -5.44 0
v -7.68 -5.44 0
v -7.68 -5.12 0
v -7.36 -5.12 0
v -0.96 -5.76 0
v -1.28 -5.76 0
v -1.28 -5.44 0
v -0.96 -5.44 0
v -3.84 -6.08 0
v -4.16 -6.08 0
v -4.16 -5.76 0
v -3.84 -5.76 0
v -8.32 -6.4 0
v -8.639999 -6.4 0
v -8.639999 -6.08 0
v -8.32 -6.08 0
v -0.64 -6.72 0
v -0.96 -6.72 0
v -0.96 -6.4 0
v -0.64 -6.4 0
v -5.12 -6.72 0
v -5.44 -6.72 0
v -5.44 -6.4 0
v -5.12 -6.4 0
v -3.52 -7.04 0
v -3.84 -7.04 0
v -3.84 -6.72 0
v -3.52 -6.72 0
v -4.16 -7.36 0
v -4.48 -7.36 0
v -4.48 -7.04 0
v -4.16 -7.04 0
v -0.96 -7.68 0
v -1.28 -7.68 0
v -1.28 -7.36 0
v -0.96 -7.36 0
v -2.56 -7.68 0
v -2.88 -7.68 0
v -2.88 -7.36 0
v -2.56 -7.36 0
v -3.52 -8 0
v -3.84 -8 0
v -3.84 -7.68 0
v -3.52 -7.68 0
v -3.84 -8.32 0
v -4.16 -8.32 0
v -4.16 -8 0
v -3.84 -8 0
v -4.48 -8.32 0
v -4.8 -8.32 0
v -4.8 -8 0
v -4.48 -8 0
v -6.08 -9.28 0
v -6.4 -9.28 0
v -6.4 -8.96 0
v -6.08 -8.96 0

# Texture cooridinates (Count = 8)
vt 0.6666667 0
vt 1 0
vt 1 0.1666667
vt 0.6666667 0.1666667
vt 0.3333333 0
vt 0.3333333 0.1666667
vt 0 0
vt 0 0.1666667

# Normal
vn 0 0 -1

# Mesh description
g forest_mesh_0004

# Faces
f 1/1/1 2/2/1 3/3/1 4/4/1
f 5/1/1 6/2/1 7/3/1 8/4/1
f 9/5/1 10/1/1 11/4/1 12/6/1
f 13/7/1 14/5/1 15/6/1 16/8/1
f 17/1/1 18/2/1 19/3/1 20/4/1
f 21/5/1 22/1/1 23/4/1 24/6/1
f 25/7/1 26/5/1 27/6/1 28/8/1
f 29/7/1 30/5/1 31/6/1 32/8/1
f 33/5/1 34/1/1 35/4/1 36/6/1
f 37/1/1 38/2/1 39/3/1 40/4/1
f 41/5/1 42/1/1 43/4/1 44/6/1
f 45/5/1 46/1/1 47/4/1 48/6/1
f 49/7/1 50/5/1 51/6/1 52/8/1
f 53/1/1 54/2/1 55/3/1 56/4/1
f 57/5/1 58/1/1 59/4/1 60/6/1
f 61/7/1 62/5/1 63/6/1 64/8/1
f 65/1/1 66/2/1 67/3/1 68/4/1
f 69/1/1 70/2/1 71/3/1 72/4/1
f 73/7/1 74/5/1 75/6/1 76/8/1
f 77/7/1 78/5/1 79/6/1 80/8/1
f 81/5/1 82/1/1 83/4/1 84/6/1
f 85/1/1 86/2/1 87/3/1 88/4/1
f 89/1/1 90/2/1 91/3/1 92/4/1
f 93/5/1 94/1/1 95/4/1 96/6/1
f 97/7/1 98/5/1 99/6/1 100/8/1
f 101/1/1 102/2/1 103/3/1 104/4/1
f 105/1/1 106/2/1 107/3/1 108/4/1
f 109/5/1 110/1/1 111/4/1 112/6/1
f 113/1/1 114/2/1 115/3/1 116/4/1

