# Tiled2Unity generated file. Do not modify by hand.
# Wavefront file for 'forest_mesh_0002.obj'

# Vertices (Count = 600)
v 0 -2.24 0
v -0.32 -2.24 0
v -0.32 -1.92 0
v 0 -1.92 0
v -0.32 -2.24 0
v -0.64 -2.24 0
v -0.64 -1.92 0
v -0.32 -1.92 0
v -0.64 -2.24 0
v -0.96 -2.24 0
v -0.96 -1.92 0
v -0.64 -1.92 0
v -0.96 -2.24 0
v -1.28 -2.24 0
v -1.28 -1.92 0
v -0.96 -1.92 0
v 0 -2.56 0
v -0.32 -2.56 0
v -0.32 -2.24 0
v 0 -2.24 0
v -0.32 -2.56 0
v -0.64 -2.56 0
v -0.64 -2.24 0
v -0.32 -2.24 0
v -0.64 -2.56 0
v -0.96 -2.56 0
v -0.96 -2.24 0
v -0.64 -2.24 0
v -0.96 -2.56 0
v -1.28 -2.56 0
v -1.28 -2.24 0
v -0.96 -2.24 0
v 0 -2.88 0
v -0.32 -2.88 0
v -0.32 -2.56 0
v 0 -2.56 0
v -0.32 -2.88 0
v -0.64 -2.88 0
v -0.64 -2.56 0
v -0.32 -2.56 0
v -0.64 -2.88 0
v -0.96 -2.88 0
v -0.96 -2.56 0
v -0.64 -2.56 0
v -0.96 -2.88 0
v -1.28 -2.88 0
v -1.28 -2.56 0
v -0.96 -2.56 0
v -0.32 -3.2 0
v -0.64 -3.2 0
v -0.64 -2.88 0
v -0.32 -2.88 0
v -0.64 -3.2 0
v -0.96 -3.2 0
v -0.96 -2.88 0
v -0.64 -2.88 0
v -0.96 -3.2 0
v -1.28 -3.2 0
v -1.28 -2.88 0
v -0.96 -2.88 0
v -0.32 -3.52 0
v -0.64 -3.52 0
v -0.64 -3.2 0
v -0.32 -3.2 0
v -0.64 -3.52 0
v -0.96 -3.52 0
v -0.96 -3.2 0
v -0.64 -3.2 0
v -0.96 -3.52 0
v -1.28 -3.52 0
v -1.28 -3.2 0
v -0.96 -3.2 0
v -0.32 -3.84 0
v -0.64 -3.84 0
v -0.64 -3.52 0
v -0.32 -3.52 0
v -0.64 -3.84 0
v -0.96 -3.84 0
v -0.96 -3.52 0
v -0.64 -3.52 0
v -0.96 -3.84 0
v -1.28 -3.84 0
v -1.28 -3.52 0
v -0.96 -3.52 0
v -2.24 -3.84 0
v -2.56 -3.84 0
v -2.56 -3.52 0
v -2.24 -3.52 0
v -2.56 -3.84 0
v -2.88 -3.84 0
v -2.88 -3.52 0
v -2.56 -3.52 0
v -2.88 -3.84 0
v -3.2 -3.84 0
v -3.2 -3.52 0
v -2.88 -3.52 0
v -3.2 -3.84 0
v -3.52 -3.84 0
v -3.52 -3.52 0
v -3.2 -3.52 0
v -3.52 -3.84 0
v -3.84 -3.84 0
v -3.84 -3.52 0
v -3.52 -3.52 0
v -3.84 -3.84 0
v -4.16 -3.84 0
v -4.16 -3.52 0
v -3.84 -3.52 0
v -4.16 -3.84 0
v -4.48 -3.84 0
v -4.48 -3.52 0
v -4.16 -3.52 0
v -0.32 -4.16 0
v -0.64 -4.16 0
v -0.64 -3.84 0
v -0.32 -3.84 0
v -0.64 -4.16 0
v -0.96 -4.16 0
v -0.96 -3.84 0
v -0.64 -3.84 0
v -0.96 -4.16 0
v -1.28 -4.16 0
v -1.28 -3.84 0
v -0.96 -3.84 0
v -1.28 -4.16 0
v -1.6 -4.16 0
v -1.6 -3.84 0
v -1.28 -3.84 0
v -1.6 -4.16 0
v -1.92 -4.16 0
v -1.92 -3.84 0
v -1.6 -3.84 0
v -1.92 -4.16 0
v -2.24 -4.16 0
v -2.24 -3.84 0
v -1.92 -3.84 0
v -2.24 -4.16 0
v -2.56 -4.16 0
v -2.56 -3.84 0
v -2.24 -3.84 0
v -2.56 -4.16 0
v -2.88 -4.16 0
v -2.88 -3.84 0
v -2.56 -3.84 0
v -2.88 -4.16 0
v -3.2 -4.16 0
v -3.2 -3.84 0
v -2.88 -3.84 0
v -3.2 -4.16 0
v -3.52 -4.16 0
v -3.52 -3.84 0
v -3.2 -3.84 0
v -3.52 -4.16 0
v -3.84 -4.16 0
v -3.84 -3.84 0
v -3.52 -3.84 0
v -3.84 -4.16 0
v -4.16 -4.16 0
v -4.16 -3.84 0
v -3.84 -3.84 0
v -4.16 -4.16 0
v -4.48 -4.16 0
v -4.48 -3.84 0
v -4.16 -3.84 0
v -4.48 -4.16 0
v -4.8 -4.16 0
v -4.8 -3.84 0
v -4.48 -3.84 0
v -4.8 -4.16 0
v -5.12 -4.16 0
v -5.12 -3.84 0
v -4.8 -3.84 0
v -5.12 -4.16 0
v -5.44 -4.16 0
v -5.44 -3.84 0
v -5.12 -3.84 0
v -0.32 -4.48 0
v -0.64 -4.48 0
v -0.64 -4.16 0
v -0.32 -4.16 0
v -0.64 -4.48 0
v -0.96 -4.48 0
v -0.96 -4.16 0
v -0.64 -4.16 0
v -0.96 -4.48 0
v -1.28 -4.48 0
v -1.28 -4.16 0
v -0.96 -4.16 0
v -1.28 -4.48 0
v -1.6 -4.48 0
v -1.6 -4.16 0
v -1.28 -4.16 0
v -1.6 -4.48 0
v -1.92 -4.48 0
v -1.92 -4.16 0
v -1.6 -4.16 0
v -1.92 -4.48 0
v -2.24 -4.48 0
v -2.24 -4.16 0
v -1.92 -4.16 0
v -2.24 -4.48 0
v -2.56 -4.48 0
v -2.56 -4.16 0
v -2.24 -4.16 0
v -2.56 -4.48 0
v -2.88 -4.48 0
v -2.88 -4.16 0
v -2.56 -4.16 0
v -2.88 -4.48 0
v -3.2 -4.48 0
v -3.2 -4.16 0
v -2.88 -4.16 0
v -3.2 -4.48 0
v -3.52 -4.48 0
v -3.52 -4.16 0
v -3.2 -4.16 0
v -3.52 -4.48 0
v -3.84 -4.48 0
v -3.84 -4.16 0
v -3.52 -4.16 0
v -3.84 -4.48 0
v -4.16 -4.48 0
v -4.16 -4.16 0
v -3.84 -4.16 0
v -4.16 -4.48 0
v -4.48 -4.48 0
v -4.48 -4.16 0
v -4.16 -4.16 0
v -4.48 -4.48 0
v -4.8 -4.48 0
v -4.8 -4.16 0
v -4.48 -4.16 0
v -4.8 -4.48 0
v -5.12 -4.48 0
v -5.12 -4.16 0
v -4.8 -4.16 0
v -5.12 -4.48 0
v -5.44 -4.48 0
v -5.44 -4.16 0
v -5.12 -4.16 0
v -5.44 -4.48 0
v -5.76 -4.48 0
v -5.76 -4.16 0
v -5.44 -4.16 0
v -0.32 -4.8 0
v -0.64 -4.8 0
v -0.64 -4.48 0
v -0.32 -4.48 0
v -0.64 -4.8 0
v -0.96 -4.8 0
v -0.96 -4.48 0
v -0.64 -4.48 0
v -0.96 -4.8 0
v -1.28 -4.8 0
v -1.28 -4.48 0
v -0.96 -4.48 0
v -1.28 -4.8 0
v -1.6 -4.8 0
v -1.6 -4.48 0
v -1.28 -4.48 0
v -1.6 -4.8 0
v -1.92 -4.8 0
v -1.92 -4.48 0
v -1.6 -4.48 0
v -1.92 -4.8 0
v -2.24 -4.8 0
v -2.24 -4.48 0
v -1.92 -4.48 0
v -2.24 -4.8 0
v -2.56 -4.8 0
v -2.56 -4.48 0
v -2.24 -4.48 0
v -2.56 -4.8 0
v -2.88 -4.8 0
v -2.88 -4.48 0
v -2.56 -4.48 0
v -2.88 -4.8 0
v -3.2 -4.8 0
v -3.2 -4.48 0
v -2.88 -4.48 0
v -3.52 -4.8 0
v -3.84 -4.8 0
v -3.84 -4.48 0
v -3.52 -4.48 0
v -3.84 -4.8 0
v -4.16 -4.8 0
v -4.16 -4.48 0
v -3.84 -4.48 0
v -4.16 -4.8 0
v -4.48 -4.8 0
v -4.48 -4.48 0
v -4.16 -4.48 0
v -4.48 -4.8 0
v -4.8 -4.8 0
v -4.8 -4.48 0
v -4.48 -4.48 0
v -4.8 -4.8 0
v -5.12 -4.8 0
v -5.12 -4.48 0
v -4.8 -4.48 0
v -5.12 -4.8 0
v -5.44 -4.8 0
v -5.44 -4.48 0
v -5.12 -4.48 0
v -5.44 -4.8 0
v -5.76 -4.8 0
v -5.76 -4.48 0
v -5.44 -4.48 0
v -5.76 -4.8 0
v -6.08 -4.8 0
v -6.08 -4.48 0
v -5.76 -4.48 0
v -4.48 -5.12 0
v -4.8 -5.12 0
v -4.8 -4.8 0
v -4.48 -4.8 0
v -4.8 -5.12 0
v -5.12 -5.12 0
v -5.12 -4.8 0
v -4.8 -4.8 0
v -5.12 -5.12 0
v -5.44 -5.12 0
v -5.44 -4.8 0
v -5.12 -4.8 0
v -5.44 -5.12 0
v -5.76 -5.12 0
v -5.76 -4.8 0
v -5.44 -4.8 0
v -5.76 -5.12 0
v -6.08 -5.12 0
v -6.08 -4.8 0
v -5.76 -4.8 0
v -6.08 -5.12 0
v -6.4 -5.12 0
v -6.4 -4.8 0
v -6.08 -4.8 0
v -6.4 -5.12 0
v -6.72 -5.12 0
v -6.72 -4.8 0
v -6.4 -4.8 0
v -4.8 -5.44 0
v -5.12 -5.44 0
v -5.12 -5.12 0
v -4.8 -5.12 0
v -5.12 -5.44 0
v -5.44 -5.44 0
v -5.44 -5.12 0
v -5.12 -5.12 0
v -5.44 -5.44 0
v -5.76 -5.44 0
v -5.76 -5.12 0
v -5.44 -5.12 0
v -5.76 -5.44 0
v -6.08 -5.44 0
v -6.08 -5.12 0
v -5.76 -5.12 0
v -6.08 -5.44 0
v -6.4 -5.44 0
v -6.4 -5.12 0
v -6.08 -5.12 0
v -6.4 -5.44 0
v -6.72 -5.44 0
v -6.72 -5.12 0
v -6.4 -5.12 0
v -6.72 -5.44 0
v -7.04 -5.44 0
v -7.04 -5.12 0
v -6.72 -5.12 0
v -5.12 -5.76 0
v -5.44 -5.76 0
v -5.44 -5.44 0
v -5.12 -5.44 0
v -5.44 -5.76 0
v -5.76 -5.76 0
v -5.76 -5.44 0
v -5.44 -5.44 0
v -5.76 -5.76 0
v -6.08 -5.76 0
v -6.08 -5.44 0
v -5.76 -5.44 0
v -6.08 -5.76 0
v -6.4 -5.76 0
v -6.4 -5.44 0
v -6.08 -5.44 0
v -6.4 -5.76 0
v -6.72 -5.76 0
v -6.72 -5.44 0
v -6.4 -5.44 0
v -6.72 -5.76 0
v -7.04 -5.76 0
v -7.04 -5.44 0
v -6.72 -5.44 0
v -7.04 -5.76 0
v -7.36 -5.76 0
v -7.36 -5.44 0
v -7.04 -5.44 0
v -5.76 -6.08 0
v -6.08 -6.08 0
v -6.08 -5.76 0
v -5.76 -5.76 0
v -6.08 -6.08 0
v -6.4 -6.08 0
v -6.4 -5.76 0
v -6.08 -5.76 0
v -6.4 -6.08 0
v -6.72 -6.08 0
v -6.72 -5.76 0
v -6.4 -5.76 0
v -6.72 -6.08 0
v -7.04 -6.08 0
v -7.04 -5.76 0
v -6.72 -5.76 0
v -7.04 -6.08 0
v -7.36 -6.08 0
v -7.36 -5.76 0
v -7.04 -5.76 0
v -7.36 -6.08 0
v -7.68 -6.08 0
v -7.68 -5.76 0
v -7.36 -5.76 0
v -6.08 -6.4 0
v -6.4 -6.4 0
v -6.4 -6.08 0
v -6.08 -6.08 0
v -6.4 -6.4 0
v -6.72 -6.4 0
v -6.72 -6.08 0
v -6.4 -6.08 0
v -6.72 -6.4 0
v -7.04 -6.4 0
v -7.04 -6.08 0
v -6.72 -6.08 0
v -7.04 -6.4 0
v -7.36 -6.4 0
v -7.36 -6.08 0
v -7.04 -6.08 0
v -7.36 -6.4 0
v -7.68 -6.4 0
v -7.68 -6.08 0
v -7.36 -6.08 0
v -7.68 -6.4 0
v -8 -6.4 0
v -8 -6.08 0
v -7.68 -6.08 0
v -6.4 -6.72 0
v -6.72 -6.72 0
v -6.72 -6.4 0
v -6.4 -6.4 0
v -6.72 -6.72 0
v -7.04 -6.72 0
v -7.04 -6.4 0
v -6.72 -6.4 0
v -7.04 -6.72 0
v -7.36 -6.72 0
v -7.36 -6.4 0
v -7.04 -6.4 0
v -7.36 -6.72 0
v -7.68 -6.72 0
v -7.68 -6.4 0
v -7.36 -6.4 0
v -7.68 -6.72 0
v -8 -6.72 0
v -8 -6.4 0
v -7.68 -6.4 0
v -8 -6.72 0
v -8.32 -6.72 0
v -8.32 -6.4 0
v -8 -6.4 0
v -6.72 -7.04 0
v -7.04 -7.04 0
v -7.04 -6.72 0
v -6.72 -6.72 0
v -7.04 -7.04 0
v -7.36 -7.04 0
v -7.36 -6.72 0
v -7.04 -6.72 0
v -7.36 -7.04 0
v -7.68 -7.04 0
v -7.68 -6.72 0
v -7.36 -6.72 0
v -7.68 -7.04 0
v -8 -7.04 0
v -8 -6.72 0
v -7.68 -6.72 0
v -8 -7.04 0
v -8.32 -7.04 0
v -8.32 -6.72 0
v -8 -6.72 0
v -8.32 -7.04 0
v -8.639999 -7.04 0
v -8.639999 -6.72 0
v -8.32 -6.72 0
v -7.04 -7.36 0
v -7.36 -7.36 0
v -7.36 -7.04 0
v -7.04 -7.04 0
v -7.36 -7.36 0
v -7.68 -7.36 0
v -7.68 -7.04 0
v -7.36 -7.04 0
v -7.68 -7.36 0
v -8 -7.36 0
v -8 -7.04 0
v -7.68 -7.04 0
v -8 -7.36 0
v -8.32 -7.36 0
v -8.32 -7.04 0
v -8 -7.04 0
v -8.32 -7.36 0
v -8.639999 -7.36 0
v -8.639999 -7.04 0
v -8.32 -7.04 0
v -8.639999 -7.36 0
v -8.96 -7.36 0
v -8.96 -7.04 0
v -8.639999 -7.04 0
v -7.36 -7.68 0
v -7.68 -7.68 0
v -7.68 -7.36 0
v -7.36 -7.36 0
v -7.68 -7.68 0
v -8 -7.68 0
v -8 -7.36 0
v -7.68 -7.36 0
v -8 -7.68 0
v -8.32 -7.68 0
v -8.32 -7.36 0
v -8 -7.36 0
v -8.32 -7.68 0
v -8.639999 -7.68 0
v -8.639999 -7.36 0
v -8.32 -7.36 0
v -8.639999 -7.68 0
v -8.96 -7.68 0
v -8.96 -7.36 0
v -8.639999 -7.36 0
v -8.96 -7.68 0
v -9.28 -7.68 0
v -9.28 -7.36 0
v -8.96 -7.36 0
v -9.28 -7.68 0
v -9.599999 -7.68 0
v -9.599999 -7.36 0
v -9.28 -7.36 0
v -7.68 -8 0
v -8 -8 0
v -8 -7.68 0
v -7.68 -7.68 0
v -8 -8 0
v -8.32 -8 0
v -8.32 -7.68 0
v -8 -7.68 0
v -8.32 -8 0
v -8.639999 -8 0
v -8.639999 -7.68 0
v -8.32 -7.68 0
v -8.639999 -8 0
v -8.96 -8 0
v -8.96 -7.68 0
v -8.639999 -7.68 0
v -8.96 -8 0
v -9.28 -8 0
v -9.28 -7.68 0
v -8.96 -7.68 0
v -9.28 -8 0
v -9.599999 -8 0
v -9.599999 -7.68 0
v -9.28 -7.68 0
v -8 -8.32 0
v -8.32 -8.32 0
v -8.32 -8 0
v -8 -8 0
v -8.32 -8.32 0
v -8.639999 -8.32 0
v -8.639999 -8 0
v -8.32 -8 0
v -8.639999 -8.32 0
v -8.96 -8.32 0
v -8.96 -8 0
v -8.639999 -8 0
v -8.96 -8.32 0
v -9.28 -8.32 0
v -9.28 -8 0
v -8.96 -8 0
v -9.28 -8.32 0
v -9.599999 -8.32 0
v -9.599999 -8 0
v -9.28 -8 0
v -8.639999 -8.639999 0
v -8.96 -8.639999 0
v -8.96 -8.32 0
v -8.639999 -8.32 0
v -8.96 -8.639999 0
v -9.28 -8.639999 0
v -9.28 -8.32 0
v -8.96 -8.32 0
v -9.28 -8.639999 0
v -9.599999 -8.639999 0
v -9.599999 -8.32 0
v -9.28 -8.32 0

# Texture cooridinates (Count = 22)
vt 0.3333333 0.5
vt 0.6666667 0.5
vt 0.6666667 0.6666666
vt 0.3333333 0.6666666
vt 1 0.5
vt 1 0.6666666
vt 0.3333333 0.3333333
vt 0.6666667 0.3333333
vt 1 0.3333333
vt 0.3333333 0.1666667
vt 0.6666667 0.1666667
vt 0.6666667 0.8333333
vt 1 0.8333333
vt 1 1
vt 0.6666667 1
vt 0 0.3333333
vt 0 0.5
vt 0 0.6666666
vt 0.3333333 0.8333333
vt 0.3333333 1
vt 0 0.1666667
vt 1 0.1666667

# Normal
vn 0 0 -1

# Mesh description
g forest_mesh_0002

# Faces
f 1/1/1 2/2/1 3/3/1 4/4/1
f 5/1/1 6/2/1 7/3/1 8/4/1
f 9/1/1 10/2/1 11/3/1 12/4/1
f 13/2/1 14/5/1 15/6/1 16/3/1
f 17/7/1 18/8/1 19/2/1 20/1/1
f 21/7/1 22/8/1 23/2/1 24/1/1
f 25/7/1 26/8/1 27/2/1 28/1/1
f 29/8/1 30/9/1 31/5/1 32/2/1
f 33/10/1 34/11/1 35/8/1 36/7/1
f 37/12/1 38/13/1 39/14/1 40/15/1
f 41/7/1 42/8/1 43/2/1 44/1/1
f 45/8/1 46/9/1 47/5/1 48/2/1
f 49/16/1 50/7/1 51/1/1 52/17/1
f 53/7/1 54/8/1 55/2/1 56/1/1
f 57/8/1 58/9/1 59/5/1 60/2/1
f 61/16/1 62/7/1 63/1/1 64/17/1
f 65/7/1 66/8/1 67/2/1 68/1/1
f 69/8/1 70/9/1 71/5/1 72/2/1
f 73/16/1 74/7/1 75/1/1 76/17/1
f 77/7/1 78/8/1 79/2/1 80/1/1
f 81/8/1 82/9/1 83/5/1 84/2/1
f 85/17/1 86/1/1 87/4/1 88/18/1
f 89/1/1 90/2/1 91/3/1 92/4/1
f 93/1/1 94/2/1 95/3/1 96/4/1
f 97/1/1 98/2/1 99/3/1 100/4/1
f 101/1/1 102/2/1 103/3/1 104/4/1
f 105/1/1 106/2/1 107/3/1 108/4/1
f 109/2/1 110/5/1 111/6/1 112/3/1
f 113/16/1 114/7/1 115/1/1 116/17/1
f 117/7/1 118/8/1 119/2/1 120/1/1
f 121/4/1 122/3/1 123/12/1 124/19/1
f 125/1/1 126/2/1 127/3/1 128/4/1
f 129/1/1 130/2/1 131/3/1 132/4/1
f 133/1/1 134/2/1 135/3/1 136/4/1
f 137/3/1 138/6/1 139/13/1 140/12/1
f 141/7/1 142/8/1 143/2/1 144/1/1
f 145/7/1 146/8/1 147/2/1 148/1/1
f 149/7/1 150/8/1 151/2/1 152/1/1
f 153/7/1 154/8/1 155/2/1 156/1/1
f 157/7/1 158/8/1 159/2/1 160/1/1
f 161/4/1 162/3/1 163/12/1 164/19/1
f 165/1/1 166/2/1 167/3/1 168/4/1
f 169/1/1 170/2/1 171/3/1 172/4/1
f 173/2/1 174/5/1 175/6/1 176/3/1
f 177/16/1 178/7/1 179/1/1 180/17/1
f 181/7/1 182/8/1 183/2/1 184/1/1
f 185/7/1 186/8/1 187/2/1 188/1/1
f 189/7/1 190/8/1 191/2/1 192/1/1
f 193/7/1 194/8/1 195/2/1 196/1/1
f 197/7/1 198/8/1 199/2/1 200/1/1
f 201/7/1 202/8/1 203/2/1 204/1/1
f 205/7/1 206/8/1 207/2/1 208/1/1
f 209/19/1 210/12/1 211/15/1 212/20/1
f 213/10/1 214/11/1 215/8/1 216/7/1
f 217/12/1 218/13/1 219/14/1 220/15/1
f 221/7/1 222/8/1 223/2/1 224/1/1
f 225/7/1 226/8/1 227/2/1 228/1/1
f 229/7/1 230/8/1 231/2/1 232/1/1
f 233/7/1 234/8/1 235/2/1 236/1/1
f 237/4/1 238/3/1 239/12/1 240/19/1
f 241/2/1 242/5/1 243/6/1 244/3/1
f 245/21/1 246/10/1 247/7/1 248/16/1
f 249/10/1 250/11/1 251/8/1 252/7/1
f 253/10/1 254/11/1 255/8/1 256/7/1
f 257/10/1 258/11/1 259/8/1 260/7/1
f 261/10/1 262/11/1 263/8/1 264/7/1
f 265/10/1 266/11/1 267/8/1 268/7/1
f 269/10/1 270/11/1 271/8/1 272/7/1
f 273/10/1 274/11/1 275/8/1 276/7/1
f 277/11/1 278/22/1 279/9/1 280/8/1
f 281/21/1 282/10/1 283/7/1 284/16/1
f 285/10/1 286/11/1 287/8/1 288/7/1
f 289/10/1 290/11/1 291/8/1 292/7/1
f 293/12/1 294/13/1 295/14/1 296/15/1
f 297/7/1 298/8/1 299/2/1 300/1/1
f 301/7/1 302/8/1 303/2/1 304/1/1
f 305/4/1 306/3/1 307/12/1 308/19/1
f 309/2/1 310/5/1 311/6/1 312/3/1
f 313/21/1 314/10/1 315/7/1 316/16/1
f 317/12/1 318/13/1 319/14/1 320/15/1
f 321/7/1 322/8/1 323/2/1 324/1/1
f 325/7/1 326/8/1 327/2/1 328/1/1
f 329/4/1 330/3/1 331/12/1 332/19/1
f 333/1/1 334/2/1 335/3/1 336/4/1
f 337/2/1 338/5/1 339/6/1 340/3/1
f 341/21/1 342/10/1 343/7/1 344/16/1
f 345/12/1 346/13/1 347/14/1 348/15/1
f 349/7/1 350/8/1 351/2/1 352/1/1
f 353/7/1 354/8/1 355/2/1 356/1/1
f 357/7/1 358/8/1 359/2/1 360/1/1
f 361/4/1 362/3/1 363/12/1 364/19/1
f 365/2/1 366/5/1 367/6/1 368/3/1
f 369/21/1 370/10/1 371/7/1 372/16/1
f 373/10/1 374/11/1 375/8/1 376/7/1
f 377/12/1 378/13/1 379/14/1 380/15/1
f 381/7/1 382/8/1 383/2/1 384/1/1
f 385/7/1 386/8/1 387/2/1 388/1/1
f 389/4/1 390/3/1 391/12/1 392/19/1
f 393/2/1 394/5/1 395/6/1 396/3/1
f 397/21/1 398/10/1 399/7/1 400/16/1
f 401/12/1 402/13/1 403/14/1 404/15/1
f 405/7/1 406/8/1 407/2/1 408/1/1
f 409/7/1 410/8/1 411/2/1 412/1/1
f 413/4/1 414/3/1 415/12/1 416/19/1
f 417/2/1 418/5/1 419/6/1 420/3/1
f 421/21/1 422/10/1 423/7/1 424/16/1
f 425/12/1 426/13/1 427/14/1 428/15/1
f 429/7/1 430/8/1 431/2/1 432/1/1
f 433/7/1 434/8/1 435/2/1 436/1/1
f 437/4/1 438/3/1 439/12/1 440/19/1
f 441/2/1 442/5/1 443/6/1 444/3/1
f 445/21/1 446/10/1 447/7/1 448/16/1
f 449/12/1 450/13/1 451/14/1 452/15/1
f 453/7/1 454/8/1 455/2/1 456/1/1
f 457/7/1 458/8/1 459/2/1 460/1/1
f 461/4/1 462/3/1 463/12/1 464/19/1
f 465/2/1 466/5/1 467/6/1 468/3/1
f 469/21/1 470/10/1 471/7/1 472/16/1
f 473/12/1 474/13/1 475/14/1 476/15/1
f 477/7/1 478/8/1 479/2/1 480/1/1
f 481/7/1 482/8/1 483/2/1 484/1/1
f 485/4/1 486/3/1 487/12/1 488/19/1
f 489/2/1 490/5/1 491/6/1 492/3/1
f 493/21/1 494/10/1 495/7/1 496/16/1
f 497/12/1 498/13/1 499/14/1 500/15/1
f 501/7/1 502/8/1 503/2/1 504/1/1
f 505/7/1 506/8/1 507/2/1 508/1/1
f 509/4/1 510/3/1 511/12/1 512/19/1
f 513/2/1 514/5/1 515/6/1 516/3/1
f 517/21/1 518/10/1 519/7/1 520/16/1
f 521/12/1 522/13/1 523/14/1 524/15/1
f 525/7/1 526/8/1 527/2/1 528/1/1
f 529/7/1 530/8/1 531/2/1 532/1/1
f 533/4/1 534/3/1 535/12/1 536/19/1
f 537/1/1 538/2/1 539/3/1 540/4/1
f 541/2/1 542/5/1 543/6/1 544/3/1
f 545/21/1 546/10/1 547/7/1 548/16/1
f 549/12/1 550/13/1 551/14/1 552/15/1
f 553/7/1 554/8/1 555/2/1 556/1/1
f 557/7/1 558/8/1 559/2/1 560/1/1
f 561/7/1 562/8/1 563/2/1 564/1/1
f 565/4/1 566/3/1 567/12/1 568/19/1
f 569/21/1 570/10/1 571/7/1 572/16/1
f 573/10/1 574/11/1 575/8/1 576/7/1
f 577/12/1 578/13/1 579/14/1 580/15/1
f 581/7/1 582/8/1 583/2/1 584/1/1
f 585/7/1 586/8/1 587/2/1 588/1/1
f 589/21/1 590/10/1 591/7/1 592/16/1
f 593/10/1 594/11/1 595/8/1 596/7/1
f 597/10/1 598/11/1 599/8/1 600/7/1

